<svg xmlns="http://www.w3.org/2000/svg" version="1.1" xmlns:xlink="http://www.w3.org/1999/xlink" xmlns:svgjs="http://svgjs.dev/svgjs" width="1440" height="560" preserveAspectRatio="none" viewBox="0 0 1440 560"><g mask="url(&quot;#SvgjsMask1031&quot;)" fill="none"><path d="M135.321,341.397C168.798,343.01,207.292,344.914,225.918,317.05C245.918,287.13,237.707,247.168,218.76,216.57C200.855,187.655,169.331,170.701,135.321,170.746C101.393,170.791,68.716,187.119,52.266,216.792C36.257,245.67,40.369,281.516,58.682,308.991C75.17,333.728,105.627,339.966,135.321,341.397" fill="rgba(34, 31, 31, 0.55)" class="triangle-float3"></path><path d="M349.585,178.531C384.032,178.481,422.523,179.818,442.136,151.5C463.911,120.06,463.02,76.691,442.444,44.454C423.161,14.243,385.32,3.751,349.585,6.497C318.526,8.884,295.339,30.815,278.542,57.049C259.811,86.304,239.036,121.78,256.572,151.767C274.028,181.616,315.006,178.581,349.585,178.531" fill="rgba(34, 31, 31, 0.55)" class="triangle-float3"></path><path d="M680.532,384.586C716.502,386.408,754.846,376.013,773.272,345.067C792.031,313.562,785.135,273.398,764.974,242.771C746.737,215.067,713.686,203.211,680.532,204.187C649.217,205.109,620.169,220.498,604.286,247.502C588.177,274.891,587.308,308.66,602.753,336.429C618.639,364.991,647.891,382.933,680.532,384.586" fill="rgba(34, 31, 31, 0.55)" class="triangle-float2"></path><path d="M1235.949,190.54C1260.689,190.191,1286.429,182.782,1298.737,161.319C1310.996,139.941,1303.909,114.28,1292.076,92.663C1279.622,69.912,1261.886,46.558,1235.949,46.615C1210.073,46.672,1192.988,70.387,1180.244,92.907C1167.757,114.974,1157.448,141.113,1170.013,163.136C1182.655,185.293,1210.442,190.9,1235.949,190.54" fill="rgba(34, 31, 31, 0.55)" class="triangle-float1"></path><path d="M503.95,469.613C554.206,472.819,609.398,463.159,636.044,420.428C663.866,375.813,652.603,319.051,626.189,273.589C599.918,228.374,556.243,193.089,503.95,193.079C451.642,193.069,404.976,226.733,381.632,273.543C360.468,315.982,373.041,365.017,398.142,405.252C421.561,442.792,459.794,466.796,503.95,469.613" fill="rgba(34, 31, 31, 0.55)" class="triangle-float2"></path><path d="M1401.808,651.697C1432.203,651.594,1459.169,633.201,1473.99,606.664C1488.439,580.793,1487.479,549.734,1473.281,523.725C1458.419,496.498,1432.821,473.811,1401.808,474.432C1371.59,475.037,1349.694,500.009,1335.123,526.489C1321.186,551.816,1315.181,581.641,1328.771,607.157C1343.138,634.133,1371.245,651.801,1401.808,651.697" fill="rgba(34, 31, 31, 0.55)" class="triangle-float1"></path><path d="M676.253,545.037C731.825,545.592,782.269,515.891,811.883,468.863C843.759,418.242,860.082,353.484,829.1,302.311C798.885,252.406,734.397,240.079,676.253,244.848C626.543,248.926,586.84,281.345,561.435,324.267C535.439,368.187,521.688,420.92,545.237,466.199C570.443,514.664,621.628,544.491,676.253,545.037" fill="rgba(34, 31, 31, 0.55)" class="triangle-float1"></path><path d="M598.244,353.919C623.147,352.88,639.149,330.402,651.338,308.661C663.167,287.562,673.747,262.339,661.176,241.673C648.899,221.49,621.82,219.86,598.244,221.373C577.78,222.686,559.275,231.879,547.902,248.942C534.937,268.392,526.773,292.358,536.88,313.435C548.237,337.117,572.003,355.014,598.244,353.919" fill="rgba(34, 31, 31, 0.55)" class="triangle-float2"></path><path d="M263.285,537.631C323.105,539.221,368.573,489.5,397.113,436.903C424.138,387.097,431.427,327.984,403.925,278.439C375.642,227.488,321.528,197.736,263.285,195.816C201.274,193.771,134.273,213.577,105.608,268.603C78.31,321.005,111.358,379.128,141.235,430.104C170.62,480.24,205.193,536.087,263.285,537.631" fill="rgba(34, 31, 31, 0.55)" class="triangle-float2"></path><path d="M41.699,439.119C83.013,438.708,130.509,441.728,152.773,406.924C176.121,370.425,161.069,323.908,139.4,286.388C117.738,248.88,85.009,214.029,41.699,214.601C-0.919,215.164,-29.952,252.214,-51.635,288.909C-73.844,326.495,-96.316,372.094,-73.275,409.176C-50.873,445.229,-0.745,439.542,41.699,439.119" fill="rgba(34, 31, 31, 0.55)" class="triangle-float2"></path><path d="M476.586,591.064C519.853,593.378,564.424,577.266,586.613,540.05C609.261,502.064,602.079,455.128,580.724,416.401C558.495,376.089,522.594,338.936,476.586,340.517C432.313,342.038,403.446,383.282,384.145,423.155C367.624,457.284,366.924,496.065,385.211,529.281C404.216,563.802,437.235,588.96,476.586,591.064" fill="rgba(34, 31, 31, 0.55)" class="triangle-float1"></path><path d="M855.834,401.249C877.544,400.771,894.177,383.897,904.448,364.764C914.094,346.795,915.458,325.799,906.051,307.704C895.825,288.035,877.985,272.139,855.834,271.259C832.272,270.323,809.53,282.74,798.196,303.419C787.244,323.401,791.799,347.357,803.366,366.989C814.73,386.277,833.452,401.742,855.834,401.249" fill="rgba(34, 31, 31, 0.55)" class="triangle-float1"></path></g><defs><mask id="SvgjsMask1031"><rect width="1440" height="560" fill="#ffffff"></rect></mask><style>
                @keyframes float1 {
                    0%{transform: translate(0, 0)}
                    50%{transform: translate(-10px, 0)}
                    100%{transform: translate(0, 0)}
                }

                .triangle-float1 {
                    animation: float1 5s infinite;
                }

                @keyframes float2 {
                    0%{transform: translate(0, 0)}
                    50%{transform: translate(-5px, -5px)}
                    100%{transform: translate(0, 0)}
                }

                .triangle-float2 {
                    animation: float2 4s infinite;
                }

                @keyframes float3 {
                    0%{transform: translate(0, 0)}
                    50%{transform: translate(0, -10px)}
                    100%{transform: translate(0, 0)}
                }

                .triangle-float3 {
                    animation: float3 6s infinite;
                }
            </style></defs></svg>